<svg xmlns="http://www.w3.org/2000/svg" width="360" height="500" viewBox="0 0 360 500" role="img" aria-labelledby="title desc">
  <title id="title">Placeholder trading card illustration</title>
  <desc id="desc">A simple illustration used as a stand-in for a trading card photo.</desc>
  <defs>
    <linearGradient id="grad" x1="0%" y1="0%" x2="100%" y2="100%">
      <stop offset="0%" stop-color="#dbeafe"/>
      <stop offset="100%" stop-color="#f8fafc"/>
    </linearGradient>
  </defs>
  <rect x="18" y="18" width="324" height="464" rx="28" ry="28" fill="url(#grad)" stroke="#bfdbfe" stroke-width="8" />
  <circle cx="180" cy="220" r="70" fill="#2563eb" opacity="0.12"/>
  <path d="M180 145c-32 0-58 26-58 58s26 58 58 58c32 0 58-26 58-58s-26-58-58-58zm0 16c23.2 0 42 18.8 42 42s-18.8 42-42 42-42-18.8-42-42 18.8-42 42-42z" fill="#1d4ed8"/>
  <path d="M180 174c-8 15-12 24-12 27s5 11 12 11 12-8 12-11-4-12-12-27z" fill="#fbbf24"/>
  <rect x="70" y="330" width="220" height="20" rx="10" ry="10" fill="#1d4ed8" opacity="0.18"/>
  <rect x="90" y="360" width="180" height="20" rx="10" ry="10" fill="#1d4ed8" opacity="0.18"/>
</svg>
